<svg xmlns="http://www.w3.org/2000/svg" xmlns:xlink="http://www.w3.org/1999/xlink" version="1.1" x="0px" y="0px" width="100px" height="100px" viewBox="0 0 100 100" enable-background="new 0 0 100 100" xml:space="preserve">
<g id="Captions">
</g>
<g id="Your_Icon">
	<path d="M68.862,58.825V45.722h0.687c2.209,0,4-1.791,4-4s-1.791-4-4-4h-0.687V24.745c0-10.4-8.462-18.862-18.862-18.862   s-18.863,8.462-18.863,18.862v12.977h-0.686c-2.209,0-4,1.791-4,4s1.791,4,4,4h0.686v13.104c0,9.027,6.379,16.585,14.863,18.426   v8.866H30.451c-2.209,0-4,1.791-4,4s1.791,4,4,4H50h19.549c2.209,0,4-1.791,4-4s-1.791-4-4-4H54v-8.866   C62.484,75.41,68.862,67.853,68.862,58.825z M39.137,24.745c0-5.989,4.873-10.862,10.863-10.862   c5.989,0,10.862,4.873,10.862,10.862v12.977H39.137V24.745z"/>
</g>
</svg>